<svg width="23" height="20" viewBox="0 0 23 20" fill="none" xmlns="http://www.w3.org/2000/svg">
<path d="M11.9016 0.721133C12.0904 0.399198 12.3952 0.161683 12.7572 0.065818L12.7672 0.0629558C12.8845 0.0228928 13.019 0 13.1607 0C13.4139 0 13.6486 0.0758333 13.846 0.204607L13.8418 0.201745C14.1551 0.400629 14.3883 0.701101 14.4971 1.05594L14.4999 1.06739C14.5357 1.179 14.5557 1.3092 14.5557 1.44227C14.5557 1.71698 14.4699 1.97024 14.3239 2.17914L14.3268 2.17485L8.30305 12.6298H12.6642H12.7057C13.3739 12.6298 13.9505 13.0219 14.2181 13.5899L14.2223 13.5999C14.3912 13.8747 14.4899 14.208 14.4899 14.5643C14.4899 14.8963 14.4026 15.2082 14.251 15.4786L14.2553 15.4686H1.45371C1.44227 15.4686 1.42939 15.4686 1.41508 15.4686C1.02447 15.4686 0.671055 15.3098 0.414938 15.0522C0.158821 14.8018 0 14.4541 0 14.0678C0 14.0607 0 14.0535 0 14.0478V14.0492C0 14.0435 0 14.0363 0 14.0292C0 13.6429 0.158821 13.2952 0.414938 13.0448C0.669624 12.7872 1.02447 12.6284 1.41508 12.6284H1.45514H5.05366L9.62226 4.66734L8.23294 2.17914C8.08985 1.97453 8.00401 1.71984 8.00401 1.44656C8.00401 1.31206 8.02404 1.18329 8.06267 1.06167L8.05981 1.07025C8.17141 0.703963 8.40464 0.403491 8.71226 0.2089L8.71799 0.204607C8.90972 0.0772641 9.1458 0.0028616 9.39906 0.0028616C9.53928 0.0028616 9.6752 0.0257544 9.80112 0.068679L9.79253 0.065818C10.1645 0.164545 10.4693 0.40206 10.6539 0.716841L10.6582 0.723995L11.2806 1.83145L11.9016 0.721133ZM4.49421 19.2746C4.27815 19.5836 3.96766 19.8154 3.6071 19.9299L3.59565 19.9328C3.47975 19.9714 3.34526 19.9943 3.20647 19.9943C2.95321 19.9943 2.71713 19.9199 2.51824 19.7911L2.52254 19.794C2.19774 19.608 1.95879 19.3018 1.86579 18.9383L1.86436 18.9283C1.83574 18.8167 1.81857 18.6879 1.81857 18.5549C1.81857 18.2859 1.88725 18.0326 2.00601 17.8123L2.00172 17.8209L3.04049 16.0896C3.2823 16.0023 3.56274 15.9508 3.85463 15.9508C4.65016 15.9508 5.35699 16.3285 5.80484 16.9152L5.80913 16.9209L4.49421 19.2746ZM21.179 12.6298H21.2176C21.6082 12.6298 21.9617 12.7887 22.2178 13.0462C22.4739 13.2966 22.6327 13.6443 22.6327 14.0306V14.0507V14.0693C22.6327 14.4556 22.4739 14.8033 22.2178 15.0537C21.9631 15.3112 21.6082 15.47 21.2176 15.47C21.2047 15.47 21.1904 15.47 21.1776 15.47H19.1716L20.5566 17.8237C20.6639 18.0197 20.7269 18.253 20.7269 18.5019C20.7269 18.655 20.7025 18.8038 20.6582 18.9426L20.661 18.9326C20.5494 19.2989 20.3162 19.5994 20.0086 19.794L20.0029 19.7983C19.8111 19.9242 19.575 20 19.3232 20C19.183 20 19.0485 19.9771 18.9226 19.9342L18.9312 19.937C18.5592 19.8383 18.2544 19.6008 18.0698 19.286L18.0655 19.2789L12.8731 10.2103C12.4825 9.59651 12.2507 8.84819 12.2507 8.04693C12.2507 7.78366 12.275 7.52754 12.3237 7.27715L12.3194 7.30291C12.4496 6.55459 12.823 5.90929 13.3538 5.43712L13.3567 5.43425L17.5104 12.6341L21.179 12.6298Z" fill="white"/>
</svg>
