<svg width="24" height="18" viewBox="0 0 24 18" fill="none" xmlns="http://www.w3.org/2000/svg">
<path d="M20.3902 1.52023C23.0582 5.44291 24.3758 9.86758 23.8832 14.9614C23.8812 14.983 23.87 15.0027 23.8522 15.0157C21.8318 16.4993 19.8743 17.3996 17.9443 17.9967C17.9293 18.0013 17.9132 18.001 17.8983 17.996C17.8834 17.991 17.8705 17.9814 17.8613 17.9687C17.4154 17.3483 17.0103 16.6942 16.6554 16.0073C16.635 15.9669 16.6536 15.9181 16.6955 15.9022C17.339 15.6598 17.9508 15.3692 18.5393 15.0252C18.5857 14.998 18.5886 14.9316 18.5458 14.8997C18.4209 14.807 18.2972 14.7095 18.1788 14.6121C18.1566 14.594 18.1268 14.5905 18.1017 14.6026C14.2809 16.367 10.0954 16.367 6.22943 14.6026C6.20433 14.5914 6.17451 14.5952 6.15295 14.6129C6.03483 14.7104 5.91081 14.807 5.78708 14.8997C5.74426 14.9316 5.74781 14.998 5.79446 15.0252C6.38298 15.3627 6.99483 15.6598 7.63739 15.9034C7.67903 15.9193 7.69881 15.9669 7.67814 16.0073C7.33088 16.6951 6.92573 17.3491 6.47157 17.9695C6.45179 17.9946 6.41931 18.0062 6.38859 17.9967C4.46771 17.3996 2.51021 16.4993 0.489815 15.0157C0.472983 15.0027 0.460876 14.9821 0.459105 14.9605C0.0474656 10.5544 0.886394 6.09315 3.94888 1.51935C3.95626 1.50724 3.96748 1.49779 3.98048 1.49218C5.48736 0.800604 7.10173 0.291813 8.78903 0.00124481C8.81974 -0.00347988 8.85046 0.0106942 8.8664 0.0378612C9.07488 0.406978 9.31318 0.880333 9.47441 1.26717C11.253 0.995497 13.0593 0.995497 14.875 1.26717C15.0363 0.888601 15.2663 0.406978 15.4739 0.0378612C15.4813 0.0243839 15.4927 0.0135867 15.5066 0.00701094C15.5205 0.000435179 15.5361 -0.0015829 15.5513 0.00124481C17.2394 0.292699 18.8538 0.80149 20.3595 1.49218C20.3728 1.49779 20.3837 1.50724 20.3902 1.52023ZM10.3786 9.8977C10.3972 8.59517 9.44754 7.51735 8.25544 7.51735C7.07308 7.51735 6.13258 8.58572 6.13258 9.8977C6.13258 11.2094 7.09169 12.2778 8.25544 12.2778C9.43809 12.2778 10.3786 11.2094 10.3786 9.8977ZM18.2281 9.8977C18.2467 8.59517 17.297 7.51735 16.1052 7.51735C14.9226 7.51735 13.9821 8.58572 13.9821 9.8977C13.9821 11.2094 14.9412 12.2778 16.1052 12.2778C17.297 12.2778 18.2281 11.2094 18.2281 9.8977Z" fill="white"/>
</svg>
