<svg width="19" height="18" viewBox="0 0 19 18" fill="none" xmlns="http://www.w3.org/2000/svg">
<path fill-rule="evenodd" clip-rule="evenodd" d="M9.37645 0C14.3471 0 18.3764 4.13093 18.3764 9.22763C18.3764 13.3037 15.8006 16.7615 12.2268 17.9828C11.7705 18.0737 11.6085 17.7856 11.6085 17.5399C11.6085 17.2357 11.6192 16.2421 11.6192 15.0073C11.6192 14.1469 11.3313 13.5854 11.0082 13.2992C13.0125 13.0706 15.1184 12.2902 15.1184 8.74599C15.1184 7.73799 14.7692 6.91543 14.1914 6.26923C14.285 6.03613 14.5937 5.09755 14.1032 3.82675C14.1032 3.82675 13.349 3.5795 11.6309 4.7729C10.9118 4.5686 10.1415 4.4658 9.37645 4.4622C8.61145 4.4658 7.84196 4.5686 7.12376 4.7729C5.40386 3.5795 4.64786 3.82675 4.64786 3.82675C4.15916 5.09755 4.46786 6.03613 4.56056 6.26923C3.98546 6.91543 3.63356 7.73799 3.63356 8.74599C3.63356 12.2812 5.73506 13.0735 7.73396 13.3066C7.47656 13.537 7.24346 13.9435 7.16246 14.5402C6.64946 14.776 5.34626 15.1841 4.54346 13.7738C4.54346 13.7738 4.06736 12.8871 3.16376 12.8223C3.16376 12.8223 2.28626 12.8107 3.10256 13.3831C3.10256 13.3831 3.69206 13.6666 4.10156 14.7331C4.10156 14.7331 4.62986 16.3801 7.13366 15.8221C7.13816 16.5934 7.14626 17.3203 7.14626 17.5399C7.14626 17.7838 6.98065 18.0692 6.53155 17.9837C2.95496 16.7642 0.376465 13.3046 0.376465 9.22763C0.376465 4.13093 4.40666 0 9.37645 0Z" fill="white"/>
</svg>
