<svg width="19" height="20" viewBox="0 0 19 20" fill="none" xmlns="http://www.w3.org/2000/svg">
<path d="M3.75852 0.508333L14.6952 6.79667L12.351 9.14083L3.75852 0.508333ZM1.49269 0L11.5319 10L1.49352 20C0.98269 19.7742 0.63269 19.2717 0.63269 18.6875C0.63269 18.6683 0.63269 18.6492 0.633524 18.6308V18.6333V1.3675C0.63269 1.35167 0.63269 1.3325 0.63269 1.31333C0.63269 0.729167 0.98269 0.226667 1.48436 0.00416667L1.49352 0.000833333L1.49269 0ZM18.0944 8.82833C18.4394 9.08417 18.6602 9.49083 18.6602 9.94833C18.6602 9.96667 18.6602 9.98417 18.6594 10.0025V10C18.6627 10.0358 18.6652 10.0783 18.6652 10.1208C18.6652 10.5508 18.4569 10.9325 18.1352 11.1692L18.1319 11.1717L15.7877 12.4992L13.2494 10L15.7885 7.46083L18.0944 8.82833ZM3.75852 19.4917L12.3519 10.8592L14.696 13.2033L3.75852 19.4917Z" fill="white"/>
</svg>
