<svg width="19" height="18" viewBox="0 0 19 18" fill="none" xmlns="http://www.w3.org/2000/svg">
<path fill-rule="evenodd" clip-rule="evenodd" d="M9.37646 13.9091C12.0877 13.9091 14.2856 11.7112 14.2856 9C14.2856 6.28878 12.0877 4.09091 9.37646 4.09091C6.66525 4.09091 4.46737 6.28878 4.46737 9C4.46737 11.7112 6.66525 13.9091 9.37646 13.9091ZM9.37646 12.2727C11.1839 12.2727 12.6492 10.8074 12.6492 9C12.6492 7.19252 11.1839 5.72727 9.37646 5.72727C7.56899 5.72727 6.10374 7.19252 6.10374 9C6.10374 10.8074 7.56899 12.2727 9.37646 12.2727Z" fill="white"/>
<path d="M14.2856 3.27273C13.8337 3.27273 13.4674 3.63904 13.4674 4.09091C13.4674 4.54277 13.8337 4.90909 14.2856 4.90909C14.7374 4.90909 15.1037 4.54277 15.1037 4.09091C15.1037 3.63904 14.7374 3.27273 14.2856 3.27273Z" fill="white"/>
<path fill-rule="evenodd" clip-rule="evenodd" d="M0.911523 2.68041C0.376465 3.73052 0.376465 5.1052 0.376465 7.85455V10.1455C0.376465 12.8948 0.376465 14.2695 0.911523 15.3196C1.38217 16.2433 2.13317 16.9943 3.05688 17.4649C4.10699 18 5.48167 18 8.23101 18H10.5219C13.2713 18 14.646 18 15.696 17.4649C16.6197 16.9943 17.3708 16.2433 17.8414 15.3196C18.3765 14.2695 18.3765 12.8948 18.3765 10.1455V7.85455C18.3765 5.1052 18.3765 3.73052 17.8414 2.68041C17.3708 1.7567 16.6197 1.00571 15.696 0.535058C14.646 0 13.2713 0 10.5219 0H8.23101C5.48167 0 4.10699 0 3.05688 0.535058C2.13317 1.00571 1.38217 1.7567 0.911523 2.68041ZM10.5219 1.63636H8.23101C6.82933 1.63636 5.87649 1.63764 5.13999 1.69781C4.42257 1.75642 4.0557 1.86266 3.79977 1.99307C3.18397 2.30684 2.6833 2.8075 2.36953 3.42331C2.23913 3.67923 2.13289 4.04611 2.07427 4.76352C2.0141 5.50002 2.01283 6.45287 2.01283 7.85455V10.1455C2.01283 11.5472 2.0141 12.4999 2.07427 13.2365C2.13289 13.9539 2.23913 14.3208 2.36953 14.5767C2.6833 15.1925 3.18397 15.6931 3.79977 16.0069C4.0557 16.1373 4.42257 16.2436 5.13999 16.3022C5.87649 16.3623 6.82933 16.3636 8.23101 16.3636H10.5219C11.9236 16.3636 12.8764 16.3623 13.6129 16.3022C14.3304 16.2436 14.6973 16.1373 14.9532 16.0069C15.569 15.6931 16.0696 15.1925 16.3834 14.5767C16.5138 14.3208 16.6201 13.9539 16.6787 13.2365C16.7388 12.4999 16.7401 11.5472 16.7401 10.1455V7.85455C16.7401 6.45287 16.7388 5.50002 16.6787 4.76352C16.6201 4.04611 16.5138 3.67923 16.3834 3.42331C16.0696 2.8075 15.569 2.30684 14.9532 1.99307C14.6973 1.86266 14.3304 1.75642 13.6129 1.69781C12.8764 1.63764 11.9236 1.63636 10.5219 1.63636Z" fill="white"/>
</svg>
