<svg width="114" height="24" viewBox="0 0 114 24" fill="none" xmlns="http://www.w3.org/2000/svg">
<path fill-rule="evenodd" clip-rule="evenodd" d="M4.83232 5.58885C4.95431 6.11125 5.1232 6.65321 5.3378 7.20404C4.78972 7.25777 4.27014 7.34134 3.78699 7.45389C2.89726 7.66116 2.07176 7.98047 1.41622 8.44328C0.754766 8.91026 0.198623 9.57692 0.0423305 10.4598C-0.113962 11.3426 0.179717 12.1585 0.640925 12.8227C1.09801 13.4809 1.76407 14.0622 2.52898 14.56C2.67187 14.653 2.81998 14.7443 2.97304 14.8336C4.46706 15.7128 6.4382 16.4105 8.6104 16.792C11.0602 17.2222 13.3907 16.9919 15.1619 16.4822C15.2588 16.4543 15.3545 16.4254 15.4489 16.3956C15.1887 17.4888 15.0117 18.5314 14.9285 19.4553C14.8472 20.3575 14.8488 21.2135 14.9844 21.9154C15.0869 22.4463 15.3431 23.2809 16.0796 23.7019C16.1779 23.761 16.285 23.8126 16.4017 23.8549C17.2896 24.1768 18.1045 23.7639 18.6107 23.3932C19.1611 22.9902 19.6914 22.3952 20.1824 21.7154C21.1748 20.342 22.1765 18.3846 22.9868 16.1674C23.797 13.9502 24.2928 11.8094 24.419 10.1219C24.4815 9.28678 24.4593 8.49145 24.2978 7.8304C24.1674 7.29658 23.8757 6.58553 23.2056 6.20207C23.103 6.14049 22.9913 6.08668 22.8696 6.04257C22.0745 5.75436 21.3142 6.0181 20.7657 6.35494C20.2056 6.69888 19.6774 7.22549 19.1935 7.84027C18.8541 8.27139 18.5152 8.77323 18.1834 9.33789C17.6409 7.96038 16.7824 6.40989 15.514 4.90432C14.1482 3.28308 12.6205 1.96951 11.1591 1.11624C10.9488 0.992527 10.7399 0.878305 10.5329 0.774029C9.71761 0.36317 8.87917 0.0792747 8.07832 0.0141063C7.27025 -0.0516495 6.41399 0.102986 5.7245 0.679228L5.74839 0.707579C5.06891 1.281 4.75582 2.10932 4.64637 2.91566C4.53503 3.73586 4.61422 4.65487 4.83232 5.58885ZM9.47399 2.94554C9.62337 3.02082 9.77597 3.10383 9.93121 3.19438C11.0963 3.88049 12.4071 4.9882 13.6255 6.43438C14.3958 7.3488 14.9846 8.27625 15.4229 9.14535C13.9919 8.38336 12.1928 7.78019 10.2293 7.43537C9.4578 7.29987 8.69639 7.21049 7.95882 7.16578C7.60074 6.42474 7.34446 5.70268 7.19032 5.0426C7.01779 4.30375 6.98423 3.68997 7.04548 3.23872C7.10808 2.77758 7.25035 2.59999 7.31461 2.54629C7.37584 2.49512 7.53313 2.40622 7.91514 2.4373C8.30437 2.46898 8.83253 2.6223 9.47399 2.94554ZM8.99684 14.3974C7.05984 14.0572 5.38995 13.4489 4.20105 12.7556C4.0923 12.6915 3.98765 12.6267 3.88727 12.5614C3.28549 12.1697 2.8881 11.7908 2.66594 11.4709C2.44791 11.1569 2.44656 10.9768 2.46044 10.8984C2.47432 10.82 2.53744 10.6512 2.85014 10.4304C3.16875 10.2055 3.67229 9.98479 4.37228 9.82173C4.99151 9.67748 5.71822 9.58907 6.52159 9.56809C6.91974 10.2143 7.37763 10.8519 7.89332 11.464C9.11537 12.9146 10.5612 13.9309 11.9955 14.5606C11.0585 14.6202 10.0411 14.5808 8.99684 14.3974ZM9.8429 9.82994C11.78 10.1701 13.4499 10.7785 14.6388 11.4719C14.7475 11.5359 14.8521 11.6006 14.9525 11.6659C15.5543 12.0576 15.9516 12.4366 16.1738 12.7565C16.2034 12.799 16.2289 12.8391 16.251 12.8768C16.1477 12.8994 16.0306 12.9181 15.8988 12.9306C15.4008 12.9777 14.7716 12.928 14.0671 12.7402C12.6602 12.3652 11.0561 11.4669 9.74787 9.91405C9.71513 9.87519 9.68269 9.83624 9.65055 9.79719C9.71448 9.80773 9.77861 9.81865 9.8429 9.82994ZM21.1326 9.34796C21.4523 8.94181 21.7274 8.67525 21.9399 8.51646C21.9964 8.83542 22.0171 9.30363 21.9708 9.92285C21.8653 11.3333 21.4344 13.2524 20.6779 15.3228C19.9213 17.3931 19.0129 19.1391 18.1835 20.2871C17.8703 20.7205 17.5913 21.0367 17.3608 21.2491C17.3169 20.8681 17.3147 20.3447 17.3737 19.6907C17.5095 18.1831 17.947 16.2188 18.6438 14.2462C18.6802 14.1689 18.7126 14.0876 18.7396 14.0023C18.8006 13.8726 18.8431 13.7425 18.8732 13.6214C19.5961 11.7263 20.4054 10.2717 21.1326 9.34796Z" fill="black"/>
<path d="M27.0988 19.39V2.65231H33.7146C35.0329 2.65231 36.1721 2.84931 37.1324 3.24333C38.1089 3.62158 38.8575 4.23624 39.3783 5.08731C39.9154 5.92262 40.1839 7.02586 40.1839 8.39703C40.1839 9.70516 39.891 10.8005 39.3051 11.6831C38.7192 12.5499 37.9136 13.204 36.8882 13.6453C35.8792 14.0708 34.7237 14.2836 33.4217 14.2836H30.3701V19.39H27.0988ZM30.3701 11.4467H33.3728C34.447 11.4467 35.3096 11.1945 35.9606 10.6902C36.6116 10.1859 36.9371 9.41359 36.9371 8.37339C36.9371 7.44352 36.6604 6.75005 36.107 6.293C35.57 5.82018 34.7237 5.58377 33.5681 5.58377H30.3701V11.4467Z" fill="black"/>
<path d="M44.945 19.5319C44.1638 19.5319 43.4314 19.4058 42.7479 19.1536C42.0806 18.8857 41.5435 18.4838 41.1366 17.9479C40.7298 17.3963 40.5263 16.7029 40.5263 15.8675C40.5263 15.2529 40.6403 14.7328 40.8681 14.3072C41.1122 13.866 41.4296 13.5035 41.8202 13.2198C42.2271 12.9203 42.6909 12.6839 43.2117 12.5105C43.7325 12.3372 44.2696 12.2032 44.8229 12.1086C45.3926 11.9983 46.0273 11.9116 46.7271 11.8486C47.4269 11.7856 48.1756 11.7146 48.9731 11.6358C48.9731 11.163 48.8754 10.7611 48.6801 10.4301C48.4848 10.0834 48.2081 9.82336 47.8501 9.65C47.492 9.46087 47.0526 9.36631 46.5318 9.36631C45.9785 9.36631 45.4983 9.46087 45.0915 9.65C44.6846 9.82336 44.3754 10.1228 44.1638 10.5484H40.9169C41.0797 9.60272 41.4377 8.85409 41.9911 8.30247C42.5607 7.75085 43.2524 7.35684 44.0661 7.12043C44.8799 6.86826 45.7181 6.74217 46.5806 6.74217C47.8989 6.74217 48.9568 6.9707 49.7543 7.42776C50.5517 7.88481 51.1295 8.55464 51.4876 9.43723C51.8456 10.3041 52.0246 11.3679 52.0246 12.6287V19.39H49.6256L49.0219 17.877C48.6476 18.3183 48.2163 18.665 47.728 18.9172C47.256 19.1536 46.7759 19.3112 46.2877 19.39C45.8157 19.4846 45.3681 19.5319 44.945 19.5319ZM45.6041 17.0259C46.2226 17.0259 46.7759 16.9156 47.2642 16.695C47.7687 16.4743 48.1674 16.1591 48.4604 15.7493C48.7696 15.3238 48.9405 14.8195 48.9731 14.2363V13.7635C48.615 13.795 48.257 13.8344 47.8989 13.8817C47.5409 13.9132 47.1747 13.9526 46.8003 13.9999C46.4423 14.0314 46.0842 14.0787 45.7262 14.1418C45.124 14.2206 44.6358 14.3861 44.2614 14.6382C43.8871 14.8904 43.7 15.2371 43.7 15.6784C43.7 16.0252 43.7976 16.301 43.9929 16.5058C44.2045 16.695 44.4567 16.8289 44.7497 16.9077C45.0426 16.9865 45.3275 17.0259 45.6041 17.0259Z" fill="black"/>
<path d="M53.5725 24V6.9313H56.118L56.7218 8.53888C57.2426 7.90846 57.8447 7.4514 58.5283 7.16771C59.2118 6.86826 59.9686 6.71853 60.7986 6.71853C62.0681 6.71853 63.1178 7.00222 63.9479 7.5696C64.7779 8.13698 65.3963 8.90925 65.8032 9.88641C66.2264 10.8478 66.4379 11.9274 66.4379 13.1252C66.4379 14.3545 66.2182 15.4578 65.7788 16.4349C65.3556 17.3963 64.7128 18.1607 63.8502 18.7281C63.0039 19.2797 61.9379 19.5555 60.6522 19.5555C60.0663 19.5555 59.5292 19.4925 59.0409 19.3664C58.5527 19.2403 58.1133 19.0669 57.7227 18.8463C57.3483 18.6099 57.031 18.3498 56.7706 18.0661V24H53.5725ZM60.1151 16.7659C60.9126 16.7659 61.5392 16.5925 61.9949 16.2458C62.4506 15.8991 62.7761 15.4578 62.9714 14.9219C63.1667 14.3703 63.2643 13.795 63.2643 13.1961C63.2643 12.5657 63.1585 11.9747 62.9469 11.4231C62.7516 10.8557 62.418 10.3986 61.946 10.0519C61.4741 9.70516 60.8475 9.53179 60.0663 9.53179C59.3502 9.53179 58.7398 9.70516 58.2353 10.0519C57.7471 10.3829 57.3727 10.8242 57.1123 11.3758C56.8682 11.9274 56.7462 12.5263 56.7462 13.1725C56.7462 13.8187 56.8682 14.4176 57.1123 14.9692C57.3565 15.5051 57.7227 15.9385 58.2109 16.2694C58.7154 16.6004 59.3502 16.7659 60.1151 16.7659Z" fill="black"/>
<path d="M67.8162 19.39V6.9313H71.0143V19.39H67.8162ZM69.4275 5.58377C68.8253 5.58377 68.337 5.4104 67.9627 5.06367C67.6047 4.70118 67.4256 4.24412 67.4256 3.6925C67.4256 3.12512 67.6128 2.66018 67.9871 2.29769C68.3777 1.9352 68.866 1.75395 69.4519 1.75395C69.989 1.75395 70.4528 1.9352 70.8434 2.29769C71.2503 2.64442 71.4537 3.10148 71.4537 3.66886C71.4537 4.23624 71.2584 4.70118 70.8678 5.06367C70.4935 5.4104 70.0134 5.58377 69.4275 5.58377Z" fill="black"/>
<path d="M76.8512 19.5319C75.9072 19.5319 75.1179 19.3743 74.4831 19.0591C73.8647 18.7281 73.4009 18.2395 73.0916 17.5933C72.7987 16.9471 72.6522 16.1434 72.6522 15.182V2.65231H75.8503V14.5673C75.8503 14.9928 75.8909 15.3632 75.9723 15.6784C76.07 15.9936 76.2327 16.2379 76.4606 16.4113C76.7047 16.5847 77.0465 16.6713 77.4859 16.6713C77.8114 16.6713 78.1206 16.6241 78.4136 16.5295C78.7065 16.4192 78.9751 16.2694 79.2192 16.0803L79.9671 18.468C79.7061 18.9515 79.2029 19.1615 78.6333 19.3191C78.0799 19.461 77.4859 19.5319 76.8512 19.5319Z" fill="black"/>
<path d="M84.4991 19.5319C83.5552 19.5319 82.7659 19.3743 82.1311 19.0591C81.5127 18.7281 81.0488 18.2395 80.7396 17.5933C80.4467 16.9471 80.3002 16.1434 80.3002 15.182V2.65231H83.4982V14.5673C83.4982 14.9928 83.5389 15.3632 83.6203 15.6784C83.718 15.9936 83.8807 16.2379 84.1086 16.4113C84.3527 16.5847 84.6944 16.6713 85.1339 16.6713C85.4594 16.6713 85.7686 16.6241 86.0616 16.5295C86.3545 16.4192 86.623 16.2694 86.8672 16.0803L87.9169 18.468C87.3961 18.8778 86.8509 19.1615 86.2813 19.3191C85.7279 19.461 85.1339 19.5319 84.4991 19.5319Z" fill="black"/>
<path d="M93.856 19.5555C92.5377 19.5555 91.3985 19.2955 90.4383 18.7754C89.478 18.2553 88.7294 17.5224 88.1923 16.5768C87.6715 15.6154 87.4111 14.4806 87.4111 13.1725C87.4111 11.8486 87.6796 10.706 88.2167 9.74456C88.7538 8.78317 89.5024 8.04242 90.4627 7.52232C91.4229 6.98646 92.5459 6.71853 93.8316 6.71853C95.1336 6.71853 96.2566 6.98646 97.2005 7.52232C98.1608 8.05818 98.9013 8.81469 99.4221 9.79184C99.9429 10.7532 100.203 11.8959 100.203 13.2198C100.203 14.5121 99.9429 15.639 99.4221 16.6004C98.9176 17.546 98.1933 18.2789 97.2494 18.799C96.3054 19.3033 95.1743 19.5555 93.856 19.5555ZM93.8072 16.7186C94.5884 16.7186 95.215 16.5531 95.687 16.2222C96.1752 15.8912 96.5251 15.4578 96.7367 14.9219C96.9483 14.3861 97.0541 13.8108 97.0541 13.1961C97.0541 12.5815 96.9483 11.9983 96.7367 11.4467C96.5251 10.8951 96.1833 10.4459 95.7114 10.0992C95.2394 9.75244 94.6047 9.57908 93.8072 9.57908C93.0423 9.57908 92.4157 9.75244 91.9274 10.0992C91.4555 10.4459 91.1055 10.8951 90.8777 11.4467C90.6661 11.9826 90.5603 12.5657 90.5603 13.1961C90.5603 13.8108 90.6661 14.3939 90.8777 14.9456C91.1055 15.4814 91.4555 15.9148 91.9274 16.2458C92.4157 16.561 93.0423 16.7186 93.8072 16.7186Z" fill="black"/>
<path d="M101.269 19.39V6.9313H103.839L104.443 8.44431C104.784 8.00302 105.183 7.66417 105.639 7.42776C106.111 7.17559 106.591 6.99434 107.079 6.88402C107.567 6.77369 108.023 6.71853 108.446 6.71853C109.667 6.71853 110.627 6.97858 111.327 7.49868C112.027 8.01878 112.523 8.72012 112.816 9.60272C113.125 10.4695 113.28 11.4388 113.28 12.5105V19.39H110.082V12.9597C110.082 12.5342 110.049 12.1244 109.984 11.7304C109.919 11.3206 109.797 10.9502 109.618 10.6193C109.439 10.2883 109.187 10.0283 108.861 9.83913C108.536 9.63424 108.105 9.53179 107.567 9.53179C106.884 9.53179 106.306 9.70516 105.834 10.0519C105.378 10.3829 105.037 10.832 104.809 11.3994C104.581 11.9668 104.467 12.6051 104.467 13.3143V19.39H101.269Z" fill="black"/>
</svg>
