<svg width="38" height="36" viewBox="0 0 38 36" fill="none" xmlns="http://www.w3.org/2000/svg">
<path fill-rule="evenodd" clip-rule="evenodd" d="M7.38835 8.39353C7.57487 9.1781 7.8331 9.99203 8.1612 10.8193C7.32323 10.9 6.52881 11.0255 5.7901 11.1945C4.42975 11.5058 3.16761 11.9854 2.16532 12.6804C1.154 13.3817 0.303685 14.383 0.0647211 15.7089C-0.174242 17.0348 0.274777 18.2601 0.979939 19.2576C1.6788 20.2461 2.69717 21.1191 3.86667 21.8668C4.08514 22.0064 4.3116 22.1435 4.54562 22.2777C6.8299 23.598 9.84367 24.6458 13.1648 25.2188C16.9104 25.8649 20.4737 25.5191 23.1817 24.7535C23.3298 24.7117 23.4761 24.6683 23.6205 24.6236C23.2227 26.2654 22.9521 27.8311 22.8248 29.2186C22.7005 30.5737 22.703 31.8593 22.9103 32.9134C23.0671 33.7107 23.4588 34.9641 24.5849 35.5964C24.7352 35.685 24.8989 35.7625 25.0774 35.8261C26.4349 36.3095 27.6809 35.6894 28.4548 35.1327C29.2963 34.5275 30.107 33.6338 30.8579 32.613C32.3751 30.5503 33.9067 27.6106 35.1455 24.2807C36.3843 20.9508 37.1424 17.7357 37.3354 15.2014C37.4309 13.9472 37.3969 12.7528 37.15 11.76C36.9506 10.9583 36.5046 9.89038 35.4801 9.31449C35.3232 9.22201 35.1524 9.1412 34.9663 9.07495C33.7508 8.6421 32.5883 9.03819 31.7496 9.54407C30.8932 10.0606 30.0857 10.8515 29.3458 11.7748C28.8269 12.4223 28.3088 13.176 27.8014 14.024C26.972 11.9552 25.6593 9.62661 23.72 7.36548C21.6318 4.93064 19.296 2.95788 17.0617 1.67641C16.7402 1.49061 16.4207 1.31907 16.1043 1.16246C14.8577 0.545422 13.5758 0.119058 12.3513 0.0211853C11.1158 -0.077569 9.80664 0.154669 8.75246 1.02009L8.78898 1.06267C7.75008 1.92385 7.27139 3.16786 7.10404 4.37884C6.93382 5.61064 7.0549 6.99084 7.38835 8.39353ZM14.4852 4.42372C14.7136 4.53677 14.9469 4.66144 15.1843 4.79743C16.9656 5.82786 18.9699 7.49146 20.8326 9.66338C22.0105 11.0367 22.9106 12.4296 23.5808 13.7348C21.3928 12.5904 18.6421 11.6846 15.6401 11.1667C14.4605 10.9632 13.2963 10.829 12.1686 10.7618C11.6211 9.6489 11.2293 8.56449 10.9936 7.57315C10.7298 6.46353 10.6785 5.54172 10.7722 4.86403C10.8679 4.17146 11.0854 3.90476 11.1836 3.82411C11.2773 3.74726 11.5178 3.61374 12.1018 3.66043C12.6969 3.708 13.5045 3.93826 14.4852 4.42372ZM13.7557 21.6225C10.7941 21.1116 8.24095 20.198 6.42319 19.1568C6.25691 19.0606 6.0969 18.9633 5.94343 18.8652C5.02334 18.2769 4.41574 17.7078 4.07608 17.2274C3.74272 16.7559 3.74066 16.4853 3.76188 16.3676C3.78311 16.2498 3.87961 15.9963 4.35771 15.6648C4.84484 15.327 5.61473 14.9955 6.68498 14.7506C7.63174 14.534 8.74286 14.4012 9.97116 14.3697C10.5799 15.3401 11.28 16.2977 12.0685 17.2171C13.9369 19.3956 16.1475 20.9219 18.3405 21.8676C16.9079 21.9572 15.3523 21.898 13.7557 21.6225ZM15.0493 14.7629C18.0109 15.2739 20.5642 16.1876 22.382 17.2288C22.5482 17.325 22.7081 17.4223 22.8615 17.5203C23.7816 18.1086 24.3892 18.6777 24.7289 19.1581C24.7741 19.222 24.8132 19.2822 24.8469 19.3389C24.689 19.3728 24.51 19.4008 24.3083 19.4196C23.547 19.4904 22.585 19.4158 21.5078 19.1337C19.3567 18.5705 16.9042 17.2214 14.904 14.8893C14.8539 14.8309 14.8043 14.7724 14.7552 14.7138C14.8529 14.7296 14.951 14.746 15.0493 14.7629ZM32.3106 14.0391C32.7994 13.4291 33.22 13.0288 33.5449 12.7903C33.6313 13.2694 33.663 13.9725 33.5922 14.9025C33.4309 17.0208 32.7721 19.903 31.6154 23.0123C30.4587 26.1215 29.0697 28.7437 27.8015 30.4679C27.3228 31.1188 26.8961 31.5936 26.5437 31.9126C26.4766 31.3404 26.4733 30.5544 26.5634 29.5723C26.7711 27.308 27.4401 24.358 28.5053 21.3955C28.561 21.2794 28.6106 21.1573 28.6519 21.0291C28.7452 20.8344 28.8101 20.639 28.8561 20.457C29.9615 17.611 31.1988 15.4265 32.3106 14.0391Z" fill="white"/>
</svg>
